<?xml version="1.0" encoding="utf-8"?>
<!-- Generator: Adobe Illustrator 22.0.1, SVG Export Plug-In . SVG Version: 6.00 Build 0)  -->
<svg version="1.1" id="layer_1" xmlns="http://www.w3.org/2000/svg" xmlns:xlink="http://www.w3.org/1999/xlink" x="0px" y="0px"
	 viewBox="0 0 106.7 130.4" style="enable-background:new 0 0 106.7 130.4;" xml:space="preserve">
<style type="text/css">
	
		.st0{fill-rule:evenodd;clip-rule:evenodd;fill:#25303B;stroke:#000000;stroke-width:1.5;stroke-linecap:round;stroke-linejoin:round;stroke-miterlimit:22.9256;}
	
		.st1{fill-rule:evenodd;clip-rule:evenodd;fill:none;stroke:#000000;stroke-width:1.5;stroke-linecap:round;stroke-linejoin:round;stroke-miterlimit:22.9256;}
	
		.st2{fill-rule:evenodd;clip-rule:evenodd;fill:#77C8E5;stroke:#000000;stroke-width:1.5;stroke-linecap:round;stroke-linejoin:round;stroke-miterlimit:22.9256;}
	
		.st3{fill-rule:evenodd;clip-rule:evenodd;fill:#F9CCAB;stroke:#000000;stroke-width:1.5;stroke-linecap:round;stroke-linejoin:round;stroke-miterlimit:22.9256;}
	
		.st4{fill-rule:evenodd;clip-rule:evenodd;fill:#FFFFFF;stroke:#000000;stroke-width:1.5;stroke-linecap:round;stroke-linejoin:round;stroke-miterlimit:22.9256;}
	
		.st5{fill-rule:evenodd;clip-rule:evenodd;fill:#FCD363;stroke:#000000;stroke-width:1.5;stroke-linecap:round;stroke-linejoin:round;stroke-miterlimit:22.9256;}
	
		.st6{fill-rule:evenodd;clip-rule:evenodd;fill:#C7C4E2;stroke:#000000;stroke-width:1.5;stroke-linecap:round;stroke-linejoin:round;stroke-miterlimit:22.9256;}
	
		.st7{fill-rule:evenodd;clip-rule:evenodd;fill:#F8ABAD;stroke:#000000;stroke-width:1.5;stroke-linecap:round;stroke-linejoin:round;stroke-miterlimit:22.9256;}
	
		.st8{fill-rule:evenodd;clip-rule:evenodd;fill:#BD7C5A;stroke:#000000;stroke-width:1.5;stroke-linecap:round;stroke-linejoin:round;stroke-miterlimit:22.9256;}
	
		.st9{fill-rule:evenodd;clip-rule:evenodd;fill:#7B4E3D;stroke:#000000;stroke-width:1.5;stroke-linecap:round;stroke-linejoin:round;stroke-miterlimit:22.9256;}
	
		.st10{fill-rule:evenodd;clip-rule:evenodd;fill:#E44F50;stroke:#000000;stroke-width:1.5;stroke-linecap:round;stroke-linejoin:round;stroke-miterlimit:22.9256;}
	
		.st11{fill-rule:evenodd;clip-rule:evenodd;fill:#EFAC7F;stroke:#000000;stroke-width:1.5;stroke-linecap:round;stroke-linejoin:round;stroke-miterlimit:22.9256;}
	
		.st12{fill-rule:evenodd;clip-rule:evenodd;fill:#3D4B57;stroke:#000000;stroke-width:1.5;stroke-linecap:round;stroke-linejoin:round;stroke-miterlimit:22.9256;}
	
		.st13{fill-rule:evenodd;clip-rule:evenodd;fill:#986883;stroke:#000000;stroke-width:1.5;stroke-linecap:round;stroke-linejoin:round;stroke-miterlimit:22.9256;}
	
		.st14{fill-rule:evenodd;clip-rule:evenodd;fill:#D1D3D4;stroke:#000000;stroke-width:1.5;stroke-linecap:round;stroke-linejoin:round;stroke-miterlimit:22.9256;}
	
		.st15{fill-rule:evenodd;clip-rule:evenodd;fill:#F47A38;stroke:#000000;stroke-width:1.5;stroke-linecap:round;stroke-linejoin:round;stroke-miterlimit:22.9256;}
	
		.st16{fill-rule:evenodd;clip-rule:evenodd;fill:#AFC93E;stroke:#000000;stroke-width:1.5;stroke-linecap:round;stroke-linejoin:round;stroke-miterlimit:22.9256;}
	.st17{fill:#F4966C;}
</style>
<g>
	<rect x="32.2" y="44.6" class="st17" width="17" height="17"/>
	<rect x="55.2" y="44.6" class="st17" width="17" height="17"/>
	<rect x="32.2" y="68.6" class="st17" width="17" height="17"/>
	<rect x="55.2" y="68.6" class="st17" width="17" height="17"/>
	<rect x="32.2" y="93.6" class="st17" width="8" height="8"/>
	<rect x="48.2" y="93.6" class="st17" width="8" height="8"/>
	<rect x="64.2" y="93.6" class="st17" width="8" height="8"/>
	<rect x="32.2" y="28.6" class="st17" width="8" height="8"/>
	<rect x="48.2" y="28.6" class="st17" width="8" height="8"/>
	<rect x="64.2" y="28.6" class="st17" width="8" height="8"/>
	<rect x="17.2" y="44.6" transform="matrix(-1.836970e-16 1 -1 -1.836970e-16 69.816 27.4594)" class="st17" width="8" height="8"/>
	<rect x="17.2" y="61.6" transform="matrix(-1.836970e-16 1 -1 -1.836970e-16 86.816 44.4594)" class="st17" width="8" height="8"/>
	
		<rect x="17.2" y="77.6" transform="matrix(-1.836970e-16 1 -1 -1.836970e-16 102.816 60.4594)" class="st17" width="8" height="8"/>
	
		<rect x="81.2" y="44.6" transform="matrix(-1.836970e-16 1 -1 -1.836970e-16 133.816 -36.5406)" class="st17" width="8" height="8"/>
	
		<rect x="81.2" y="61.6" transform="matrix(-1.836970e-16 1 -1 -1.836970e-16 150.816 -19.5406)" class="st17" width="8" height="8"/>
	
		<rect x="81.2" y="77.6" transform="matrix(-1.836970e-16 1 -1 -1.836970e-16 166.816 -3.5406)" class="st17" width="8" height="8"/>
	<path class="st17" d="M25.2,36.6h-8v-3.2c0-2.6,2.1-4.8,4.8-4.8h3.2V36.6z"/>
	<path class="st17" d="M25.2,93.6v8h-3.2c-2.6,0-4.8-2.1-4.8-4.8v-3.2H25.2z"/>
	<path class="st17" d="M81.2,36.6h8v-3.2c0-2.6-2.1-4.8-4.8-4.8h-3.2V36.6z"/>
	<path class="st17" d="M81.2,93.6v8h3.2c2.6,0,4.8-2.1,4.8-4.8v-3.2H81.2z"/>
</g>
</svg>
