<?xml version="1.0" encoding="utf-8"?>
<!-- Generator: Adobe Illustrator 22.0.1, SVG Export Plug-In . SVG Version: 6.00 Build 0)  -->
<svg version="1.1" id="layer_1" xmlns="http://www.w3.org/2000/svg" xmlns:xlink="http://www.w3.org/1999/xlink" x="0px" y="0px"
	 viewBox="0 0 106.7 130.4" style="enable-background:new 0 0 106.7 130.4;" xml:space="preserve">
<style type="text/css">
	
		.st0{fill-rule:evenodd;clip-rule:evenodd;fill:#25303B;stroke:#000000;stroke-width:1.5;stroke-linecap:round;stroke-linejoin:round;stroke-miterlimit:22.9256;}
	
		.st1{fill-rule:evenodd;clip-rule:evenodd;fill:none;stroke:#000000;stroke-width:1.5;stroke-linecap:round;stroke-linejoin:round;stroke-miterlimit:22.9256;}
	
		.st2{fill-rule:evenodd;clip-rule:evenodd;fill:#77C8E5;stroke:#000000;stroke-width:1.5;stroke-linecap:round;stroke-linejoin:round;stroke-miterlimit:22.9256;}
	
		.st3{fill-rule:evenodd;clip-rule:evenodd;fill:#F9CCAB;stroke:#000000;stroke-width:1.5;stroke-linecap:round;stroke-linejoin:round;stroke-miterlimit:22.9256;}
	
		.st4{fill-rule:evenodd;clip-rule:evenodd;fill:#FFFFFF;stroke:#000000;stroke-width:1.5;stroke-linecap:round;stroke-linejoin:round;stroke-miterlimit:22.9256;}
	
		.st5{fill-rule:evenodd;clip-rule:evenodd;fill:#FCD363;stroke:#000000;stroke-width:1.5;stroke-linecap:round;stroke-linejoin:round;stroke-miterlimit:22.9256;}
	
		.st6{fill-rule:evenodd;clip-rule:evenodd;fill:#C7C4E2;stroke:#000000;stroke-width:1.5;stroke-linecap:round;stroke-linejoin:round;stroke-miterlimit:22.9256;}
	
		.st7{fill-rule:evenodd;clip-rule:evenodd;fill:#F8ABAD;stroke:#000000;stroke-width:1.5;stroke-linecap:round;stroke-linejoin:round;stroke-miterlimit:22.9256;}
	
		.st8{fill-rule:evenodd;clip-rule:evenodd;fill:#BD7C5A;stroke:#000000;stroke-width:1.5;stroke-linecap:round;stroke-linejoin:round;stroke-miterlimit:22.9256;}
	
		.st9{fill-rule:evenodd;clip-rule:evenodd;fill:#7B4E3D;stroke:#000000;stroke-width:1.5;stroke-linecap:round;stroke-linejoin:round;stroke-miterlimit:22.9256;}
	
		.st10{fill-rule:evenodd;clip-rule:evenodd;fill:#E44F50;stroke:#000000;stroke-width:1.5;stroke-linecap:round;stroke-linejoin:round;stroke-miterlimit:22.9256;}
	
		.st11{fill-rule:evenodd;clip-rule:evenodd;fill:#EFAC7F;stroke:#000000;stroke-width:1.5;stroke-linecap:round;stroke-linejoin:round;stroke-miterlimit:22.9256;}
	
		.st12{fill-rule:evenodd;clip-rule:evenodd;fill:#3D4B57;stroke:#000000;stroke-width:1.5;stroke-linecap:round;stroke-linejoin:round;stroke-miterlimit:22.9256;}
	
		.st13{fill-rule:evenodd;clip-rule:evenodd;fill:#986883;stroke:#000000;stroke-width:1.5;stroke-linecap:round;stroke-linejoin:round;stroke-miterlimit:22.9256;}
	
		.st14{fill-rule:evenodd;clip-rule:evenodd;fill:#D1D3D4;stroke:#000000;stroke-width:1.5;stroke-linecap:round;stroke-linejoin:round;stroke-miterlimit:22.9256;}
	
		.st15{fill-rule:evenodd;clip-rule:evenodd;fill:#F47A38;stroke:#000000;stroke-width:1.5;stroke-linecap:round;stroke-linejoin:round;stroke-miterlimit:22.9256;}
	
		.st16{fill-rule:evenodd;clip-rule:evenodd;fill:#AFC93E;stroke:#000000;stroke-width:1.5;stroke-linecap:round;stroke-linejoin:round;stroke-miterlimit:22.9256;}
	.st17{fill:#F4966C;}
</style>
<g id="g4_1_">
	<path class="st9" d="M76.8,39.1L76.8,39.1c3.1,1.9,5.2,5.2,5.2,9c0,2.5-0.9,4.8-2.5,6.6c3.5,2,5.9,5.7,5.9,10
		c0,4.6-2.8,8.6-6.8,10.4c1.4,2.6,2,5.7,1,9c-1.5,4.9-6.2,8.2-11.3,8.2l-30.1,0c-5.1,0-9.8-3.2-11.3-8.1c-1-3.3-0.5-6.5,1-9
		c-4-1.8-6.8-5.8-6.8-10.5c0-4.2,2.4-8,5.9-10c-1.5-1.8-2.5-4.1-2.5-6.6c0-3.8,2.1-7.1,5.2-8.9v-0.4c0-14.9,14.3-26.6,29.9-22.4
		C69.9,19.1,76.8,28.6,76.8,39.1z"/>
	<path class="st1" d="M35.2,36.1c0-8.9,8.3-16.2,18.5-16.2"/>
	<path class="st10" d="M78.8,115.3V97.1c0-8.1-6.7-14.8-14.8-14.8H43.6c-8.1,0-14.8,6.7-14.8,14.8v18.2H78.8z"/>
	<path class="st11" d="M59.8,68.3l0,14.2c0,2.8-1.8,5.5-4.6,6.2c-3.9,0.9-7.4-2.2-7.4-6V68.3H59.8z"/>
	<path class="st11" d="M71.8,46.1v11.4c0,7.7-4.7,14.7-12,17.2c-12.3,4.1-24-5.2-24-17V46.1c0.7,0.1,1.3,0.1,2,0.1
		c6.7,0,12.5-3.4,16-8.5c3.5,5.1,9.3,8.5,16,8.5C70.5,46.2,71.1,46.2,71.8,46.1z"/>
	<path class="st4" d="M62.7,62.3c-1.1,4.1-4.9,7.2-9.4,7.2c-4.5,0-8.3-3.1-9.4-7.2H62.7z"/>
	<g>
		<path class="st1" d="M47.7,54.3c-0.5-1.4-1.9-2.5-3.5-2.5c-1.6,0-3,1-3.5,2.5l-1.9,0"/>
		<path class="st1" d="M59,54.3c0.5-1.4,1.9-2.5,3.5-2.5c1.6,0,3,1,3.5,2.5l1.8,0"/>
	</g>
	<g>
		<line class="st1" x1="37.8" y1="115.3" x2="37.8" y2="104.3"/>
		<line class="st1" x1="68.8" y1="115.3" x2="68.8" y2="104.3"/>
	</g>
</g>
</svg>
