<?xml version="1.0" encoding="utf-8"?>
<!-- Generator: Adobe Illustrator 22.0.1, SVG Export Plug-In . SVG Version: 6.00 Build 0)  -->
<svg version="1.1" id="layer_1" xmlns="http://www.w3.org/2000/svg" xmlns:xlink="http://www.w3.org/1999/xlink" x="0px" y="0px"
	 viewBox="0 0 106.7 130.4" style="enable-background:new 0 0 106.7 130.4;" xml:space="preserve">
<style type="text/css">
	
		.st0{fill-rule:evenodd;clip-rule:evenodd;fill:#25303B;stroke:#000000;stroke-width:1.5;stroke-linecap:round;stroke-linejoin:round;stroke-miterlimit:22.9256;}
	
		.st1{fill-rule:evenodd;clip-rule:evenodd;fill:none;stroke:#000000;stroke-width:1.5;stroke-linecap:round;stroke-linejoin:round;stroke-miterlimit:22.9256;}
	
		.st2{fill-rule:evenodd;clip-rule:evenodd;fill:#77C8E5;stroke:#000000;stroke-width:1.5;stroke-linecap:round;stroke-linejoin:round;stroke-miterlimit:22.9256;}
	
		.st3{fill-rule:evenodd;clip-rule:evenodd;fill:#F9CCAB;stroke:#000000;stroke-width:1.5;stroke-linecap:round;stroke-linejoin:round;stroke-miterlimit:22.9256;}
	
		.st4{fill-rule:evenodd;clip-rule:evenodd;fill:#FFFFFF;stroke:#000000;stroke-width:1.5;stroke-linecap:round;stroke-linejoin:round;stroke-miterlimit:22.9256;}
	
		.st5{fill-rule:evenodd;clip-rule:evenodd;fill:#FCD363;stroke:#000000;stroke-width:1.5;stroke-linecap:round;stroke-linejoin:round;stroke-miterlimit:22.9256;}
	
		.st6{fill-rule:evenodd;clip-rule:evenodd;fill:#C7C4E2;stroke:#000000;stroke-width:1.5;stroke-linecap:round;stroke-linejoin:round;stroke-miterlimit:22.9256;}
	
		.st7{fill-rule:evenodd;clip-rule:evenodd;fill:#F8ABAD;stroke:#000000;stroke-width:1.5;stroke-linecap:round;stroke-linejoin:round;stroke-miterlimit:22.9256;}
	
		.st8{fill-rule:evenodd;clip-rule:evenodd;fill:#BD7C5A;stroke:#000000;stroke-width:1.5;stroke-linecap:round;stroke-linejoin:round;stroke-miterlimit:22.9256;}
	
		.st9{fill-rule:evenodd;clip-rule:evenodd;fill:#7B4E3D;stroke:#000000;stroke-width:1.5;stroke-linecap:round;stroke-linejoin:round;stroke-miterlimit:22.9256;}
	
		.st10{fill-rule:evenodd;clip-rule:evenodd;fill:#E44F50;stroke:#000000;stroke-width:1.5;stroke-linecap:round;stroke-linejoin:round;stroke-miterlimit:22.9256;}
	
		.st11{fill-rule:evenodd;clip-rule:evenodd;fill:#EFAC7F;stroke:#000000;stroke-width:1.5;stroke-linecap:round;stroke-linejoin:round;stroke-miterlimit:22.9256;}
	
		.st12{fill-rule:evenodd;clip-rule:evenodd;fill:#3D4B57;stroke:#000000;stroke-width:1.5;stroke-linecap:round;stroke-linejoin:round;stroke-miterlimit:22.9256;}
	
		.st13{fill-rule:evenodd;clip-rule:evenodd;fill:#986883;stroke:#000000;stroke-width:1.5;stroke-linecap:round;stroke-linejoin:round;stroke-miterlimit:22.9256;}
	
		.st14{fill-rule:evenodd;clip-rule:evenodd;fill:#D1D3D4;stroke:#000000;stroke-width:1.5;stroke-linecap:round;stroke-linejoin:round;stroke-miterlimit:22.9256;}
	
		.st15{fill-rule:evenodd;clip-rule:evenodd;fill:#F47A38;stroke:#000000;stroke-width:1.5;stroke-linecap:round;stroke-linejoin:round;stroke-miterlimit:22.9256;}
	
		.st16{fill-rule:evenodd;clip-rule:evenodd;fill:#AFC93E;stroke:#000000;stroke-width:1.5;stroke-linecap:round;stroke-linejoin:round;stroke-miterlimit:22.9256;}
	.st17{fill:#F4966C;}
</style>
<g id="g3_1_">
	<path class="st0" d="M56.5,15.7c10,2.3,18.2,12.9,18.2,23.1v10c0,2.6-0.4,5-1.2,7.3c5.4,2.1,8.9,7.9,7.6,14.3
		c-1,4.8-4.9,8.6-9.7,9.5c-6.6,1.3-12.5-2.6-14.3-8.4c-3.7,1-7.7,1-11.8,0c-10.5-2.6-17.6-12.3-17.6-23v-9.9
		C27.6,23.9,41.3,12.3,56.5,15.7z"/>
	<path class="st7" d="M75.6,115.3V97.1c0-8.1-6.7-14.8-14.8-14.8H40.4c-8.1,0-14.8,6.7-14.8,14.8v18.2H75.6z"/>
	<path class="st8" d="M56.6,68.3l0,14.2c0,2.8-1.8,5.5-4.6,6.2c-3.9,0.9-7.4-2.2-7.4-6V68.3H56.6z"/>
	<path class="st8" d="M67.9,38.9c0.5,1.6,0.7,3.3,0.7,5.1v13.5c0,7.7-4.7,14.7-12,17.2c-12.3,4.1-24-5.2-24-17V45.8
		c2.3,0.3,4.5,0.4,6.9,0.4C49.8,46.2,59.5,43.6,67.9,38.9z"/>
	<path class="st4" d="M60.3,62.3c-1.1,4.1-4.9,7.2-9.4,7.2c-4.5,0-8.3-3.1-9.4-7.2H60.3z"/>
	<g>
		<path class="st1" d="M45.3,54.3c-0.5-1.4-1.9-2.5-3.5-2.5c-1.6,0-3,1-3.5,2.5l-1.6,0"/>
		<path class="st1" d="M56.6,54.3c0.5-1.4,1.9-2.5,3.5-2.5c1.6,0,3,1,3.5,2.5l1,0"/>
	</g>
	<g>
		<line class="st1" x1="35.6" y1="115.3" x2="35.6" y2="104.3"/>
		<line class="st1" x1="66.6" y1="115.3" x2="66.6" y2="104.3"/>
	</g>
	<path class="st1" d="M33.1,36.5c0-8.9,8.3-16.2,18.5-16.2"/>
</g>
</svg>
