<?xml version="1.0" encoding="utf-8"?>
<!-- Generator: Adobe Illustrator 22.0.1, SVG Export Plug-In . SVG Version: 6.00 Build 0)  -->
<svg version="1.1" id="layer_1" xmlns="http://www.w3.org/2000/svg" xmlns:xlink="http://www.w3.org/1999/xlink" x="0px" y="0px"
	 viewBox="0 0 106.7 130.4" style="enable-background:new 0 0 106.7 130.4;" xml:space="preserve">
<style type="text/css">
	
		.st0{fill-rule:evenodd;clip-rule:evenodd;fill:#25303B;stroke:#000000;stroke-width:1.5;stroke-linecap:round;stroke-linejoin:round;stroke-miterlimit:22.9256;}
	
		.st1{fill-rule:evenodd;clip-rule:evenodd;fill:none;stroke:#000000;stroke-width:1.5;stroke-linecap:round;stroke-linejoin:round;stroke-miterlimit:22.9256;}
	
		.st2{fill-rule:evenodd;clip-rule:evenodd;fill:#77C8E5;stroke:#000000;stroke-width:1.5;stroke-linecap:round;stroke-linejoin:round;stroke-miterlimit:22.9256;}
	
		.st3{fill-rule:evenodd;clip-rule:evenodd;fill:#F9CCAB;stroke:#000000;stroke-width:1.5;stroke-linecap:round;stroke-linejoin:round;stroke-miterlimit:22.9256;}
	
		.st4{fill-rule:evenodd;clip-rule:evenodd;fill:#FFFFFF;stroke:#000000;stroke-width:1.5;stroke-linecap:round;stroke-linejoin:round;stroke-miterlimit:22.9256;}
	
		.st5{fill-rule:evenodd;clip-rule:evenodd;fill:#FCD363;stroke:#000000;stroke-width:1.5;stroke-linecap:round;stroke-linejoin:round;stroke-miterlimit:22.9256;}
	
		.st6{fill-rule:evenodd;clip-rule:evenodd;fill:#C7C4E2;stroke:#000000;stroke-width:1.5;stroke-linecap:round;stroke-linejoin:round;stroke-miterlimit:22.9256;}
	
		.st7{fill-rule:evenodd;clip-rule:evenodd;fill:#F8ABAD;stroke:#000000;stroke-width:1.5;stroke-linecap:round;stroke-linejoin:round;stroke-miterlimit:22.9256;}
	
		.st8{fill-rule:evenodd;clip-rule:evenodd;fill:#BD7C5A;stroke:#000000;stroke-width:1.5;stroke-linecap:round;stroke-linejoin:round;stroke-miterlimit:22.9256;}
	
		.st9{fill-rule:evenodd;clip-rule:evenodd;fill:#7B4E3D;stroke:#000000;stroke-width:1.5;stroke-linecap:round;stroke-linejoin:round;stroke-miterlimit:22.9256;}
	
		.st10{fill-rule:evenodd;clip-rule:evenodd;fill:#E44F50;stroke:#000000;stroke-width:1.5;stroke-linecap:round;stroke-linejoin:round;stroke-miterlimit:22.9256;}
	
		.st11{fill-rule:evenodd;clip-rule:evenodd;fill:#EFAC7F;stroke:#000000;stroke-width:1.5;stroke-linecap:round;stroke-linejoin:round;stroke-miterlimit:22.9256;}
	
		.st12{fill-rule:evenodd;clip-rule:evenodd;fill:#3D4B57;stroke:#000000;stroke-width:1.5;stroke-linecap:round;stroke-linejoin:round;stroke-miterlimit:22.9256;}
	
		.st13{fill-rule:evenodd;clip-rule:evenodd;fill:#986883;stroke:#000000;stroke-width:1.5;stroke-linecap:round;stroke-linejoin:round;stroke-miterlimit:22.9256;}
	
		.st14{fill-rule:evenodd;clip-rule:evenodd;fill:#D1D3D4;stroke:#000000;stroke-width:1.5;stroke-linecap:round;stroke-linejoin:round;stroke-miterlimit:22.9256;}
	
		.st15{fill-rule:evenodd;clip-rule:evenodd;fill:#F47A38;stroke:#000000;stroke-width:1.5;stroke-linecap:round;stroke-linejoin:round;stroke-miterlimit:22.9256;}
	
		.st16{fill-rule:evenodd;clip-rule:evenodd;fill:#AFC93E;stroke:#000000;stroke-width:1.5;stroke-linecap:round;stroke-linejoin:round;stroke-miterlimit:22.9256;}
	.st17{fill:#F4966C;}
</style>
<g id="m4_1_">
	<path class="st0" d="M42.7,15.5h22c6.6,0,12,5.4,12,12v23c0,6.6-5.4,12-12,12h-22c-6.6,0-12-5.4-12-12v-23
		C30.6,20.9,36,15.5,42.7,15.5z"/>
	<path class="st13" d="M38.6,80.5h30c8.8,0,16,7.2,16,16v19h-62v-19C22.6,87.7,29.8,80.5,38.6,80.5z"/>
	<path class="st3" d="M61.6,69.5v12c0,3.7-3.6,6.7-8,6.7l0,0c-4.4,0-8-3-8-6.7v-12H61.6z"/>
	<path class="st3" d="M72.6,41.7v22.8c0,5.5-4.5,10-10,10h-19c-5.5,0-10-4.5-10-10V41.1c1.4,0.2,2.9,0.3,4.4,0.3
		c10,0,18.6-4.8,22.4-11.7C62.3,34.9,66.8,39.2,72.6,41.7z"/>
	<path class="st1" d="M43.4,19.7c-5.4,0-9.8,4.4-9.8,9.8l0,6"/>
	<g>
		<path class="st1" d="M47.7,48.6c-0.5-1.4-1.9-2.5-3.5-2.5c-1.6,0-3,1-3.5,2.5"/>
		<path class="st1" d="M59,48.6c0.5-1.4,1.9-2.5,3.5-2.5c1.6,0,3,1,3.5,2.5"/>
	</g>
	<path class="st4" d="M63.5,59.5c-1.2,4.5-5.3,7.8-10.2,7.8c-4.9,0-9-3.3-10.2-7.8H63.5z"/>
	<g>
		<line class="st1" x1="33.6" y1="114.5" x2="33.6" y2="104.5"/>
		<line class="st1" x1="73.6" y1="114.5" x2="73.6" y2="104.5"/>
	</g>
	<g>
		<path class="st1" d="M55.8,47.9c-0.4-1-1.3-1.8-2.5-1.8c-1.1,0-2.1,0.7-2.5,1.8"/>
		<g>
			<path class="st1" d="M50.6,43.5v5.1c0,1.6-1.3,2.9-2.9,2.9h-8.1c-1.6,0-2.9-1.3-2.9-2.9v-5.1H50.6z"/>
			<path class="st1" d="M69.6,43.5v5.1c0,1.6-1.3,2.9-2.9,2.9h-8.1c-1.6,0-2.9-1.3-2.9-2.9v-5.1H69.6z"/>
		</g>
		<g>
			<line class="st1" x1="34.6" y1="47.5" x2="36.6" y2="47.5"/>
			<line class="st1" x1="69.6" y1="47.5" x2="72.6" y2="47.5"/>
		</g>
	</g>
</g>
</svg>
