<?xml version="1.0" encoding="utf-8"?>
<!-- Generator: Adobe Illustrator 22.0.1, SVG Export Plug-In . SVG Version: 6.00 Build 0)  -->
<svg version="1.1" id="layer_1" xmlns="http://www.w3.org/2000/svg" xmlns:xlink="http://www.w3.org/1999/xlink" x="0px" y="0px"
	 viewBox="0 0 106.7 130.4" style="enable-background:new 0 0 106.7 130.4;" xml:space="preserve">
<style type="text/css">
	
		.st0{fill-rule:evenodd;clip-rule:evenodd;fill:#25303B;stroke:#000000;stroke-width:1.5;stroke-linecap:round;stroke-linejoin:round;stroke-miterlimit:22.9256;}
	
		.st1{fill-rule:evenodd;clip-rule:evenodd;fill:none;stroke:#000000;stroke-width:1.5;stroke-linecap:round;stroke-linejoin:round;stroke-miterlimit:22.9256;}
	
		.st2{fill-rule:evenodd;clip-rule:evenodd;fill:#77C8E5;stroke:#000000;stroke-width:1.5;stroke-linecap:round;stroke-linejoin:round;stroke-miterlimit:22.9256;}
	
		.st3{fill-rule:evenodd;clip-rule:evenodd;fill:#F9CCAB;stroke:#000000;stroke-width:1.5;stroke-linecap:round;stroke-linejoin:round;stroke-miterlimit:22.9256;}
	
		.st4{fill-rule:evenodd;clip-rule:evenodd;fill:#FFFFFF;stroke:#000000;stroke-width:1.5;stroke-linecap:round;stroke-linejoin:round;stroke-miterlimit:22.9256;}
	
		.st5{fill-rule:evenodd;clip-rule:evenodd;fill:#FCD363;stroke:#000000;stroke-width:1.5;stroke-linecap:round;stroke-linejoin:round;stroke-miterlimit:22.9256;}
	
		.st6{fill-rule:evenodd;clip-rule:evenodd;fill:#C7C4E2;stroke:#000000;stroke-width:1.5;stroke-linecap:round;stroke-linejoin:round;stroke-miterlimit:22.9256;}
	
		.st7{fill-rule:evenodd;clip-rule:evenodd;fill:#F8ABAD;stroke:#000000;stroke-width:1.5;stroke-linecap:round;stroke-linejoin:round;stroke-miterlimit:22.9256;}
	
		.st8{fill-rule:evenodd;clip-rule:evenodd;fill:#BD7C5A;stroke:#000000;stroke-width:1.5;stroke-linecap:round;stroke-linejoin:round;stroke-miterlimit:22.9256;}
	
		.st9{fill-rule:evenodd;clip-rule:evenodd;fill:#7B4E3D;stroke:#000000;stroke-width:1.5;stroke-linecap:round;stroke-linejoin:round;stroke-miterlimit:22.9256;}
	
		.st10{fill-rule:evenodd;clip-rule:evenodd;fill:#E44F50;stroke:#000000;stroke-width:1.5;stroke-linecap:round;stroke-linejoin:round;stroke-miterlimit:22.9256;}
	
		.st11{fill-rule:evenodd;clip-rule:evenodd;fill:#EFAC7F;stroke:#000000;stroke-width:1.5;stroke-linecap:round;stroke-linejoin:round;stroke-miterlimit:22.9256;}
	
		.st12{fill-rule:evenodd;clip-rule:evenodd;fill:#3D4B57;stroke:#000000;stroke-width:1.5;stroke-linecap:round;stroke-linejoin:round;stroke-miterlimit:22.9256;}
	
		.st13{fill-rule:evenodd;clip-rule:evenodd;fill:#986883;stroke:#000000;stroke-width:1.5;stroke-linecap:round;stroke-linejoin:round;stroke-miterlimit:22.9256;}
	
		.st14{fill-rule:evenodd;clip-rule:evenodd;fill:#D1D3D4;stroke:#000000;stroke-width:1.5;stroke-linecap:round;stroke-linejoin:round;stroke-miterlimit:22.9256;}
	
		.st15{fill-rule:evenodd;clip-rule:evenodd;fill:#F47A38;stroke:#000000;stroke-width:1.5;stroke-linecap:round;stroke-linejoin:round;stroke-miterlimit:22.9256;}
	
		.st16{fill-rule:evenodd;clip-rule:evenodd;fill:#AFC93E;stroke:#000000;stroke-width:1.5;stroke-linecap:round;stroke-linejoin:round;stroke-miterlimit:22.9256;}
	.st17{fill:#F4966C;}
</style>
<g id="g1_1_">
	<path class="st0" d="M53.1,15.2c13.4,0,24.5,9.6,24.5,21.2v33.8h-49V36.4C28.6,24.8,39.7,15.2,53.1,15.2z"/>
	<path class="st1" d="M34,36.9c0-8.9,8.3-16.2,18.5-16.2"/>
	<path class="st2" d="M78.6,115.2V97c0-8.1-6.7-14.8-14.8-14.8H43.4c-8.1,0-14.8,6.7-14.8,14.8v18.2H78.6z"/>
	<path class="st3" d="M59.6,68.2l0,14.2c0,2.8-1.8,5.5-4.6,6.1c-3.9,0.9-7.4-2.2-7.4-6V68.2H59.6z"/>
	<path class="st3" d="M71.5,42.2c0.1,0.6,0.1,1.2,0.1,1.8v13.1c0,8.1-5.2,15.4-13,17.5c-11.9,3.3-23-5.8-23-17.1V44.1
		c0-0.6,0-1.2,0.1-1.8c1.9,2.4,4.9,3.9,8.2,3.9h19.4C66.7,46.2,69.6,44.6,71.5,42.2z"/>
	<path class="st4" d="M62.7,62.2c-1.1,4.1-4.9,7.2-9.4,7.2s-8.3-3.1-9.4-7.2H62.7z"/>
	<g>
		<path class="st1" d="M47.7,54.2c-0.5-1.4-1.9-2.5-3.5-2.5c-1.6,0-3,1-3.5,2.5l-2,0"/>
		<path class="st1" d="M59,54.2c0.5-1.4,1.9-2.5,3.5-2.5c1.6,0,3,1,3.5,2.5l1.6,0"/>
	</g>
	<g>
		<line class="st1" x1="37.6" y1="115.2" x2="37.6" y2="104.2"/>
		<line class="st1" x1="68.6" y1="115.2" x2="68.6" y2="104.2"/>
	</g>
</g>
</svg>
