<?xml version="1.0" encoding="utf-8"?>
<!-- Generator: Adobe Illustrator 22.0.1, SVG Export Plug-In . SVG Version: 6.00 Build 0)  -->
<svg version="1.1" id="Layer_1" xmlns="http://www.w3.org/2000/svg" xmlns:xlink="http://www.w3.org/1999/xlink" x="0px" y="0px"
	 viewBox="0 0 25 29" style="enable-background:new 0 0 25 29;" xml:space="preserve">
<style type="text/css">
	.st0{fill:#303C6C;}
	.st1{fill:#FAE8A6;}
</style>
<g id="Component_1" transform="translate(25 29) rotate(180)">
	<g id="Polygon_1" transform="translate(0 29) rotate(-90)">
		<path class="st0" d="M20.3,21H8.7c-1.3,0-2.4-0.7-3-1.8c-0.6-1.1-0.6-2.4,0-3.5l5.8-10c0.6-1.1,1.8-1.7,3-1.7c1.3,0,2.4,0.7,3,1.7
			l5.8,10c0.6,1.1,0.6,2.4,0,3.5C22.7,20.3,21.6,21,20.3,21z"/>
		<path class="st1" d="M14.5,5.5c-0.3,0-1.2,0.1-1.7,1L7,16.5c-0.5,0.9-0.2,1.7,0,2s0.7,1,1.7,1h11.6c1,0,1.6-0.7,1.7-1s0.5-1.1,0-2
			l-5.8-10C15.7,5.6,14.8,5.5,14.5,5.5 M14.5,2.5c1.7,0,3.4,0.8,4.3,2.5l5.8,10c1.9,3.3-0.5,7.5-4.3,7.5H8.7c-3.9,0-6.3-4.2-4.3-7.5
			l5.8-10C11.1,3.3,12.8,2.5,14.5,2.5z"/>
	</g>
</g>
</svg>
