<?xml version="1.0" encoding="utf-8"?>
<!-- Generator: Adobe Illustrator 22.0.1, SVG Export Plug-In . SVG Version: 6.00 Build 0)  -->
<svg version="1.1" xmlns="http://www.w3.org/2000/svg" xmlns:xlink="http://www.w3.org/1999/xlink" x="0px" y="0px"
	 viewBox="0 0 542.7 723.5" style="enable-background:new 0 0 542.7 723.5;" xml:space="preserve">
<style type="text/css">
	.st0{fill:#303C6C;}
	.st1{fill:#B4DFE5;}
	.st2{fill:#F4966C;}
	.st3{fill:#FAE8A6;}
	.st4{fill:#D1FDFE;}
</style>
<g id="Layer_1">
	<g>
		<polygon class="st0" points="63.9,74.7 189.3,74.7 189.3,269.5 352.9,269.5 352.9,74.7 478.8,74.7 478.8,648.8 353.1,648.8 
			353.1,458.2 188.6,458.2 188.6,648.8 63.9,648.8 		"/>
		<path class="st1" d="M330.9,269.4c-15.9-10.2-31.7-20.4-47.6-30.6c2.4,10.2,4.7,20.4,7.1,30.6c-14.9,0-29.7,0-44.6,0
			c-26.4,20.7-36.4,54.3-25.4,81.3c15.4,37.9,63,40,72.2,40.1c7.2,0.1,58.1-0.2,74.7-40.3c11.1-26.8,2-60.1-23.1-81.1
			C339.8,269.4,335.3,269.4,330.9,269.4z"/>
		<path class="st2" d="M285.6,458.2c-15.9,10.2-31.7,20.4-47.6,30.6c2.4-10.2,4.7-20.4,7.1-30.6c-14.9,0-29.7,0-44.6,0
			c-26.4-20.7-36.4-54.3-25.4-81.3c15.4-37.9,63-40,72.2-40.1c7.2-0.1,58.1,0.2,74.7,40.3c11.1,26.8,2,60.1-23.1,81.1
			C294.4,458.2,290,458.2,285.6,458.2z"/>
	</g>
</g>
<g id="Color_Palette">
</g>
</svg>
