<?xml version="1.0" encoding="utf-8"?>
<!-- Generator: Adobe Illustrator 22.0.1, SVG Export Plug-In . SVG Version: 6.00 Build 0)  -->
<svg version="1.1" xmlns="http://www.w3.org/2000/svg" xmlns:xlink="http://www.w3.org/1999/xlink" x="0px" y="0px"
	 viewBox="0 0 542.7 723.5" style="enable-background:new 0 0 542.7 723.5;" xml:space="preserve">
<style type="text/css">
	.st0{fill:#303C6C;}
	.st1{fill:#B4DFE5;}
	.st2{fill:#F4966C;}
	.st3{fill:#FAE8A6;}
	.st4{fill:#D1FDFE;}
</style>
<g id="Layer_1">
	<g>
		<polygon class="st0" points="92.8,77.4 218.2,77.4 218.2,272.2 381.7,272.2 381.7,77.4 507.7,77.4 507.7,651.5 381.9,651.5 
			381.9,460.9 217.5,460.9 217.5,651.5 92.8,651.5 		"/>
		<path class="st1" d="M359.8,272.2c-15.9-10.2-31.7-20.4-47.6-30.6c2.4,10.2,4.7,20.4,7.1,30.6c-14.9,0-29.7,0-44.6,0
			c-26.4,20.7-36.4,54.3-25.4,81.3c15.4,37.9,63,40,72.2,40.1c7.2,0.1,58.1-0.2,74.7-40.3c11.1-26.8,2-60.1-23.1-81.1
			C368.7,272.2,364.2,272.2,359.8,272.2z"/>
		<path class="st2" d="M314.4,460.9c-15.9,10.2-31.7,20.4-47.6,30.6c2.4-10.2,4.7-20.4,7.1-30.6c-14.9,0-29.7,0-44.6,0
			c-26.4-20.7-36.4-54.3-25.4-81.3c15.4-37.9,63-40,72.2-40.1c7.2-0.1,58.1,0.2,74.7,40.3c11.1,26.8,2,60.1-23.1,81.1
			C323.3,460.9,318.9,460.9,314.4,460.9z"/>
		<g>
			<path class="st0" d="M45,599.5h41v10H69v14h17v9H45v-9h17v-14H45V599.5z"/>
			<path class="st0" d="M86,558.3l-8,2.9v15.1l8,2.9v10l-41-16.6v-7.7l41-16.6V558.3z M55.2,568.8L70,574v-10.5L55.2,568.8z"/>
			<path class="st0" d="M86,528.5v9H45v-6.9v-2.3V522c0-6.7,5.5-12.7,13.5-12.7c8.5,0,13.5,6,13.5,12.7v6.6H86z M52,528.5h12v-4.9
				c0-2.7-2.1-5.5-6-5.5c-3.7,0-6,2.8-6,5.5V528.5z"/>
			<path class="st0" d="M86,489.5v9H45v-6.9v-2.3V483c0-6.7,5.5-12.7,13.5-12.7c8.5,0,13.5,6,13.5,12.7v6.6H86z M52,489.5h12v-4.9
				c0-2.7-2.1-5.5-6-5.5c-3.7,0-6,2.8-6,5.5V489.5z"/>
			<path class="st0" d="M66.4,447.5L45,462.6v-10.7l14.2-8.8L45,434.2v-10.7l21.4,15.1H86v9H66.4z"/>
			<path class="st0" d="M86,353.5v9H53v12h-8v-33h8v12H86z"/>
			<path class="st0" d="M86.9,311.3c0,11.5-9.9,21.4-21.4,21.4c-11.5,0-21.4-9.9-21.4-21.4s9.9-21.4,21.4-21.4
				C77,289.9,86.9,299.8,86.9,311.3z M53.2,311.3c0,6.4,5.8,12.2,12.2,12.2c6.4,0,12.3-5.8,12.3-12.2s-5.9-12.2-12.3-12.2
				C59,299.1,53.2,304.9,53.2,311.3z"/>
			<path class="st0" d="M45,202.5h41v10H69v14h17v9H45v-9h17v-14H45V202.5z"/>
			<path class="st0" d="M86,165.5v24H45v-24h8v14h8v-14h8v14h9v-14H86z"/>
			<path class="st0" d="M45,151.5v-9h33v-15h8v24H45z"/>
			<path class="st0" d="M86,106.5v9H45v-6.9v-2.3V100c0-6.7,5.5-12.7,13.5-12.7c8.5,0,13.5,6,13.5,12.7v6.6H86z M52,106.5h12v-4.9
				c0-2.7-2.1-5.5-6-5.5c-3.7,0-6,2.8-6,5.5V106.5z"/>
		</g>
	</g>
</g>
<g id="Color_Palette">
</g>
</svg>
