<?xml version="1.0" encoding="utf-8"?>
<!-- Generator: Adobe Illustrator 22.0.1, SVG Export Plug-In . SVG Version: 6.00 Build 0)  -->
<svg version="1.1" id="Component_1" xmlns="http://www.w3.org/2000/svg" xmlns:xlink="http://www.w3.org/1999/xlink" x="0px"
	 y="0px" viewBox="0 0 317 35" style="enable-background:new 0 0 317 35;" xml:space="preserve">
<style type="text/css">
	.st0{fill:#FAE8A6;}
	.st1{clip-path:url(#SVGID_2_);}
	.st2{fill:none;}
	.st3{opacity:0.54;fill:#303C6C;enable-background:new    ;}
	.st4{fill:#FFFFFF;}
</style>
<path id="Rectangle_171" class="st0" d="M17.5,0h282c9.7,0,17.5,7.8,17.5,17.5l0,0c0,9.7-7.8,17.5-17.5,17.5h-282
	C7.8,35,0,27.2,0,17.5l0,0C0,7.8,7.8,0,17.5,0z"/>
<g>
	<defs>
		<rect id="SVGID_1_" x="5" y="6" width="24" height="24"/>
	</defs>
	<clipPath id="SVGID_2_">
		<use xlink:href="#SVGID_1_"  style="overflow:visible;"/>
	</clipPath>
	<g id="ic_chevron_left" transform="translate(5 6)" class="st1">
		<rect id="rectangle" class="st2" width="24" height="24"/>
		<path id="path" class="st3" d="M15.4,7.4L14,6l-6,6l6,6l1.4-1.4L10.8,12L15.4,7.4z"/>
	</g>
</g>
<path id="Rectangle_172" class="st4" d="M39.5,6h255c6.4,0,11.5,5.1,11.5,11.5l0,0c0,6.4-5.1,11.5-11.5,11.5h-255
	C33.1,29,28,23.9,28,17.5l0,0C28,11.1,33.1,6,39.5,6z"/>
</svg>
